<?xml version="1.0" encoding="UTF-8" standalone="no"?>
<svg
   xmlns:dc="http://purl.org/dc/elements/1.1/"
   xmlns:cc="http://creativecommons.org/ns#"
   xmlns:rdf="http://www.w3.org/1999/02/22-rdf-syntax-ns#"
   xmlns:svg="http://www.w3.org/2000/svg"
   xmlns="http://www.w3.org/2000/svg"
   xmlns:sodipodi="http://sodipodi.sourceforge.net/DTD/sodipodi-0.dtd"
   xmlns:inkscape="http://www.inkscape.org/namespaces/inkscape"
   enable-background="new 0 0 56.693 56.693"
   height="512"
   id="Layer_1"
   version="1.1"
   viewBox="0 0 448 511.99998"
   width="448"
   xml:space="preserve"
   sodipodi:docname="applemusic-square.svg"
   inkscape:version="1.0.1 (c497b03c, 2020-09-10)"><metadata
     id="metadata15"><rdf:RDF><cc:Work
         rdf:about=""><dc:format>image/svg+xml</dc:format><dc:type
           rdf:resource="http://purl.org/dc/dcmitype/StillImage" /><dc:title /></cc:Work></rdf:RDF></metadata><sodipodi:namedview
     pagecolor="#ffffff"
     bordercolor="#666666"
     borderopacity="1"
     objecttolerance="10"
     gridtolerance="10"
     guidetolerance="10"
     inkscape:pageopacity="0"
     inkscape:pageshadow="2"
     inkscape:window-width="1866"
     inkscape:window-height="1027"
     id="namedview13"
     showgrid="false"
     inkscape:zoom="1.2428857"
     inkscape:cx="41.439213"
     inkscape:cy="206.66269"
     inkscape:window-x="0"
     inkscape:window-y="25"
     inkscape:window-maximized="1"
     inkscape:current-layer="Layer_1"
     inkscape:document-rotation="0" /><defs
     id="defs7" /><path
     id="rect2986"
     style="fill:#000000;fill-opacity:1;stroke:none;stroke-width:0.895999"
     d="M 44.800781 32 C 19.981581 32 -9.4739031e-15 51.981581 0 76.800781 L 0 435.19922 C 0 460.01842 19.981581 480 44.800781 480 L 403.19922 480 C 428.01842 480 448 460.01842 448 435.19922 L 448 76.800781 C 448 51.981581 428.01842 32 403.19922 32 L 44.800781 32 z M 329.72852 82 C 335.67434 81.991577 339.75396 86.076167 340.31641 92.357422 C 340.51641 93.957422 340.61523 95.556651 340.61523 97.056641 L 340.61719 219.45703 L 340.61719 341.25586 C 340.61719 350.15586 339.41608 358.95703 335.41602 366.95703 C 329.21612 379.55703 319.2163 387.45586 305.81641 391.25586 C 298.41641 393.45586 290.71561 394.55703 283.01562 394.95703 C 262.81567 395.95703 245.21715 382.25586 241.61719 362.25586 C 238.5171 345.75586 246.41644 327.55664 263.81641 319.05664 C 270.61635 315.75664 278.01562 313.75586 285.51562 312.25586 C 293.61555 310.55586 301.71678 308.95664 309.7168 307.05664 C 315.61676 305.75664 319.41716 302.15664 320.61719 296.05664 L 321.01562 291.95703 L 321.01562 175.75586 L 320.41602 171.85742 C 319.61595 168.65742 317.21601 166.65742 313.91602 166.85742 C 310.51596 167.05742 307.21638 167.55586 303.81641 168.25586 C 287.51641 171.45586 271.31716 174.65703 255.11719 177.95703 L 176.2168 193.85742 L 175.11719 194.15625 C 169.21719 195.85625 167.11639 198.45625 166.81641 204.65625 L 166.81641 207.35742 C 166.71579 262.85742 166.81742 318.35742 166.7168 373.85742 C 166.7168 382.85742 165.71522 391.65664 162.11523 400.05664 C 156.21522 413.75664 145.71562 422.35742 131.51562 426.35742 C 124.0157 428.55742 116.31561 429.75664 108.51562 430.05664 C 88.115649 430.85664 71.117173 417.25625 67.617188 397.15625 C 64.617192 379.85625 72.516841 361.15742 92.216797 352.85742 C 99.916782 349.65742 107.81606 347.95586 115.91602 346.25586 C 122.01603 345.05586 128.21684 343.75664 134.2168 342.55664 C 142.41683 340.85664 146.61563 335.65742 147.01562 327.35742 L 147.01562 324.15625 L 147.01562 134.65625 C 147.01562 131.95625 147.31606 129.35586 147.91602 126.75586 C 149.41609 120.65586 153.71529 117.15586 159.61523 115.75586 C 165.01526 114.35586 170.61527 113.35625 176.11523 112.15625 C 191.81526 108.95625 207.31566 105.85586 223.01562 102.75586 L 271.41602 92.957031 C 285.71596 90.157026 300.01646 87.257422 314.31641 84.357422 C 319.01638 83.457422 323.7157 82.456641 328.51562 82.056641 C 328.92813 82.019141 329.33213 82.000562 329.72852 82 z " /></svg>
