<?xml version="1.0" encoding="UTF-8" standalone="no"?>
<svg
   width="128"
   height="128"
   viewBox="0 0 128 128"
   fill="none"
   version="1.1"
   id="svg826"
   sodipodi:docname="audius.svg"
   inkscape:version="1.1 (c4e8f9e, 2021-05-24)"
   xmlns:inkscape="http://www.inkscape.org/namespaces/inkscape"
   xmlns:sodipodi="http://sodipodi.sourceforge.net/DTD/sodipodi-0.dtd"
   xmlns="http://www.w3.org/2000/svg"
   xmlns:svg="http://www.w3.org/2000/svg">
  <defs
     id="defs830" />
  <sodipodi:namedview
     id="namedview828"
     pagecolor="#ffffff"
     bordercolor="#666666"
     borderopacity="1.0"
     inkscape:pageshadow="2"
     inkscape:pageopacity="0.0"
     inkscape:pagecheckerboard="0"
     showgrid="false"
     inkscape:zoom="5.8828125"
     inkscape:cx="64"
     inkscape:cy="64"
     inkscape:window-width="1869"
     inkscape:window-height="1027"
     inkscape:window-x="0"
     inkscape:window-y="25"
     inkscape:window-maximized="1"
     inkscape:current-layer="svg826" />
  <path
     fill-rule="evenodd"
     clip-rule="evenodd"
     d="M75.122 128V127.918H75.1148C59.5288 127.918 43.9427 127.918 28.3567 127.836C26.7158 127.836 24.2545 127.015 23.5981 125.785C22.9418 124.636 23.6802 122.175 24.5006 120.698C26.3056 117.416 28.1926 114.176 30.0796 110.935C31.9666 107.694 33.8537 104.453 35.6586 101.172C37.2175 98.3 39.2686 97.1513 42.5504 97.2334C51.5752 97.3154 60.6001 97.3154 69.625 97.2334C74.5477 97.1513 75.7783 95.0182 73.317 90.7519C68.2302 81.8911 63.1435 73.0303 57.9747 64.1695C55.5954 60.1494 53.1341 60.2314 50.7548 64.3336C50.0278 65.5835 49.3008 66.8314 48.5745 68.0783C44.6283 74.8522 40.7003 81.5949 36.8893 88.4547C35.3305 91.2442 33.2794 92.5569 29.9976 92.4748C25.2829 92.3723 20.6003 92.4299 15.9097 92.4875C13.0907 92.5222 10.2688 92.5569 7.43539 92.5569C2.18455 92.5569 0.62571 89.6853 3.25113 85.0908C18.9216 57.8521 34.5921 30.6954 50.3446 3.45672C53.052 -1.21981 56.0056 -1.13776 58.7951 3.62081C69.9935 23.0642 81.1919 42.5281 92.3904 61.992C103.59 81.4581 114.79 100.924 125.989 120.37C128.943 125.539 127.466 128 121.477 128H75.122Z"
     fill="#0089DB"
     id="path824"
     style="fill:#000000" />
</svg>
