<?xml version="1.0" encoding="UTF-8" standalone="no"?>
<svg
   xmlns:dc="http://purl.org/dc/elements/1.1/"
   xmlns:cc="http://creativecommons.org/ns#"
   xmlns:rdf="http://www.w3.org/1999/02/22-rdf-syntax-ns#"
   xmlns:svg="http://www.w3.org/2000/svg"
   xmlns="http://www.w3.org/2000/svg"
   xmlns:sodipodi="http://sodipodi.sourceforge.net/DTD/sodipodi-0.dtd"
   xmlns:inkscape="http://www.inkscape.org/namespaces/inkscape"
   width="448"
   height="512"
   viewBox="0 0 118.53333 135.46666"
   version="1.1"
   id="svg8"
   inkscape:version="1.0.1 (c497b03c, 2020-09-10)"
   sodipodi:docname="audiomack.svg">
  <defs
     id="defs2" />
  <sodipodi:namedview
     id="base"
     pagecolor="#ffffff"
     bordercolor="#666666"
     borderopacity="1.0"
     inkscape:pageopacity="0.0"
     inkscape:pageshadow="2"
     inkscape:zoom="1.5540715"
     inkscape:cx="400"
     inkscape:cy="236.28457"
     inkscape:document-units="px"
     inkscape:current-layer="layer1"
     inkscape:document-rotation="0"
     showgrid="false"
     inkscape:window-width="1863"
     inkscape:window-height="1027"
     inkscape:window-x="0"
     inkscape:window-y="25"
     inkscape:window-maximized="1"
     units="px" />
  <metadata
     id="metadata5">
    <rdf:RDF>
      <cc:Work
         rdf:about="">
        <dc:format>image/svg+xml</dc:format>
        <dc:type
           rdf:resource="http://purl.org/dc/dcmitype/StillImage" />
        <dc:title></dc:title>
      </cc:Work>
    </rdf:RDF>
  </metadata>
  <g
     inkscape:label="Layer 1"
     inkscape:groupmode="layer"
     id="layer1">
    <path
       style="fill:#000000;stroke-width:0.231655"
       d="M 76.234179,107.831 C 74.322242,107.1701 70.647467,104.10592 69.80226,102.46779 69.571448,102.02045 69.470047,98.353817 69.356953,86.365355 69.219774,71.824782 69.005657,66.284214 68.54938,65.46866 c -0.137843,-0.24639 -1.35989,1.594985 -4.360356,6.570147 -2.29286,3.801867 -5.358519,8.875481 -6.812578,11.274689 l -2.643743,4.362223 -0.98105,-0.105047 c -1.498295,-0.160424 -2.062534,-0.64829 -2.361275,-2.041685 -0.141591,-0.66041 -0.823825,-2.879727 -1.516072,-4.931825 -0.69225,-2.052098 -1.844261,-5.60776 -2.56003,-7.901492 -0.715767,-2.293724 -1.450288,-4.401645 -1.632268,-4.684263 -0.634092,-0.98476 -1.266752,-0.457977 -4.929464,4.104529 -3.112025,3.876528 -5.72315,6.604956 -7.213153,7.537184 -1.14955,0.71922 -2.682831,1.231562 -3.281328,1.096444 -0.809923,-0.182849 -1.622661,-2.73763 -2.984616,-9.38192 -0.280323,-1.367563 -0.630354,-2.651561 -0.777842,-2.853326 -0.233462,-0.319368 -0.536885,-0.166369 -2.344806,1.182385 -2.440266,1.820497 -4.005576,2.563939 -6.14114,2.916723 -2.634989,0.435291 -5.5893,-0.386497 -8.4382916,-2.347236 -0.9957938,-0.685331 -1.0470282,-0.77493 -1.0470282,-1.831085 0,-1.442609 0.5310131,-3.180864 1.184158,-3.876309 0.7420128,-0.790072 1.9140428,-0.714046 4.5743138,0.296749 4.268919,1.622 6.179263,1.143093 9.375607,-2.350414 1.780625,-1.946167 3.568937,-3.131615 4.724209,-3.131615 0.774313,0 2.306292,0.834634 2.735949,1.490569 0.200975,0.30682 0.507134,1.426277 0.680351,2.487686 0.38879,2.382333 0.524592,2.740748 1.038461,2.740748 0.547475,0 3.348759,-2.964379 7.461877,-7.896308 3.609667,-4.328264 4.447401,-5.173652 6.027973,-6.083043 1.855786,-1.06774 3.240062,-1.005987 4.016378,0.179172 0.210854,0.321909 0.621177,1.70801 0.911828,3.08023 0.601639,2.840453 1.408662,5.300792 2.587418,7.888165 0.933375,2.048779 2.70016,4.806586 3.202965,4.999593 0.585016,0.224551 1.657665,-1.605273 9.148243,-15.605817 1.94305,-3.631731 4.259072,-7.838031 5.146728,-9.347331 1.466674,-2.493834 1.709979,-2.786687 2.666985,-3.210147 2.143416,-0.948419 5.452379,-0.218192 6.405569,1.413589 0.416104,0.712338 0.423063,1.083424 0.168965,9.013297 -0.145748,4.548706 -0.366502,11.867356 -0.490567,16.263669 -0.124065,4.396304 -0.29323,8.90557 -0.375922,10.020579 -0.09754,1.315145 -0.06785,2.027272 0.08466,2.027272 0.129238,0 0.91911,-2.05913 1.755273,-4.575862 1.87827,-5.653295 10.266387,-32.514282 12.462606,-39.908547 0.889436,-2.994589 1.671778,-5.628303 1.738537,-5.852704 0.323853,-1.088633 3.589483,-1.452582 6.843486,-0.762706 2.33053,0.494092 2.92107,0.8851 3.60994,2.390232 0.85034,1.857933 0.93336,4.55312 0.3157,10.249112 -0.76114,7.019231 -1.53345,17.465643 -2.23532,30.235499 -0.11898,2.164736 -0.10259,2.286464 0.2494,1.853521 0.2072,-0.254859 0.779,-1.257036 1.27066,-2.22705 0.49166,-0.970014 1.23874,-2.055101 1.66016,-2.411301 1.36332,-1.152287 3.6817,-1.982437 6.47418,-2.318233 1.64503,-0.197807 3.76617,0.357363 4.15711,1.088064 0.32337,0.604401 0.56201,4.840115 0.35172,6.242837 l -0.15334,1.022869 -2.13646,0.408881 c -4.25223,0.813802 -5.90266,1.218898 -6.29582,1.54529 -0.22032,0.182903 -1.12451,1.77809 -2.00932,3.544857 -0.94914,1.895219 -2.00617,3.643588 -2.57803,4.264181 -0.90066,0.977369 -1.03585,1.044368 -1.90879,0.945942 -1.45731,-0.164303 -7.901198,-3.589708 -10.278918,-5.464 l -0.551801,-0.434967 0.378557,-4.262132 c 0.208205,-2.34418 0.375028,-4.783441 0.37071,-5.420584 -0.007,-1.015636 -0.04597,-1.108239 -0.316884,-0.751148 -0.169983,0.224026 -2.929853,8.3042 -6.133037,17.955952 -3.203198,9.651753 -6.237124,18.395628 -6.742064,19.430848 -0.733722,1.50427 -1.077437,1.95785 -1.7118,2.25897 -0.941993,0.44713 -0.690355,0.45325 -2.152722,-0.0523 z M 1.6415247,68.953515 C 1.3592429,68.892571 0.85380828,68.516341 0.5183378,68.117541 0.02479066,67.53082 -0.06661351,67.235242 0.03936986,66.568712 0.23866562,65.315337 1.0922528,64.702381 2.6383624,64.702381 c 2.4820349,0 3.6945069,1.113992 3.1171363,2.863956 -0.1462587,0.443302 -0.391914,0.910598 -0.5458976,1.03843 -0.3240741,0.269044 -2.8116141,0.512175 -3.5680764,0.348748 z"
       id="path847" />
  </g>
</svg>
