<?xml version="1.0" encoding="UTF-8" standalone="no"?>
<svg
   xmlns:dc="http://purl.org/dc/elements/1.1/"
   xmlns:cc="http://creativecommons.org/ns#"
   xmlns:rdf="http://www.w3.org/1999/02/22-rdf-syntax-ns#"
   xmlns:svg="http://www.w3.org/2000/svg"
   xmlns="http://www.w3.org/2000/svg"
   xmlns:sodipodi="http://sodipodi.sourceforge.net/DTD/sodipodi-0.dtd"
   xmlns:inkscape="http://www.inkscape.org/namespaces/inkscape"
   width="448"
   height="512"
   viewBox="0 0 118.53333 135.46666"
   version="1.1"
   id="svg8"
   inkscape:version="1.0.1 (c497b03c, 2020-09-10)"
   sodipodi:docname="imgur-logo.svg">
  <defs
     id="defs2" />
  <sodipodi:namedview
     id="base"
     pagecolor="#ffffff"
     bordercolor="#666666"
     borderopacity="1.0"
     inkscape:pageopacity="0.0"
     inkscape:pageshadow="2"
     inkscape:zoom="0.35"
     inkscape:cx="400"
     inkscape:cy="560"
     inkscape:document-units="mm"
     inkscape:current-layer="layer1"
     inkscape:document-rotation="0"
     showgrid="false"
     units="px"
     inkscape:window-width="1252"
     inkscape:window-height="1027"
     inkscape:window-x="0"
     inkscape:window-y="25"
     inkscape:window-maximized="0" />
  <metadata
     id="metadata5">
    <rdf:RDF>
      <cc:Work
         rdf:about="">
        <dc:format>image/svg+xml</dc:format>
        <dc:type
           rdf:resource="http://purl.org/dc/dcmitype/StillImage" />
        <dc:title></dc:title>
      </cc:Work>
    </rdf:RDF>
  </metadata>
  <g
     inkscape:label="Layer 1"
     inkscape:groupmode="layer"
     id="layer1">
    <path
       style="fill:#000000;stroke-width:0.245605"
       d="m 12.49124,126.93395 c -0.271678,-0.0541 -1.105234,-0.22051 -1.852346,-0.36979 -4.9226507,-0.98359 -9.3491628,-5.59758 -10.27082231,-10.70584 -0.49076226,-2.72002 -0.49076226,-93.527185 0,-96.247208 C 1.2864389,14.521108 5.4697045,10.136542 10.638894,8.8460492 c 2.026215,-0.5058434 95.283726,-0.5058434 97.309946,0 5.39588,1.3470878 9.60259,5.9438118 10.35729,11.3175598 0.20791,1.480412 0.26303,14.525758 0.20618,48.792301 -0.0694,41.79773 -0.11909,46.9015 -0.4676,47.99283 -1.4956,4.68323 -4.98967,8.1385 -9.7254,9.61745 -1.10521,0.34515 -6.17612,0.38987 -48.284513,0.42588 -25.877279,0.0222 -47.27188,-0.004 -47.543557,-0.0581 z m 50.322262,-23.97217 c 1.732661,-0.7648 3.698605,-2.7232 4.538268,-4.520844 l 0.709864,-1.519738 v -17.82939 c 0,-19.876709 0.07094,-18.994691 -1.722591,-21.411742 -1.627471,-2.193252 -4.080656,-3.416866 -6.921696,-3.452443 -3.079578,-0.03859 -5.746589,1.331091 -7.398872,3.799715 -1.653222,2.470018 -1.642808,2.326198 -1.563545,21.595218 l 0.07116,17.298642 0.691729,1.465422 c 1.091959,2.31332 3.153047,4.17528 5.439336,4.9138 1.500669,0.48474 4.688184,0.3094 6.156349,-0.33864 z m -0.0011,-53.287255 c 1.970911,-0.744872 3.915778,-2.560639 4.934461,-4.606896 0.741889,-1.49028 0.808633,-1.816284 0.808633,-3.949747 0,-2.034635 -0.08644,-2.508641 -0.691166,-3.790834 -3.432506,-7.277718 -13.705263,-7.277718 -17.140568,0 -0.605118,1.281944 -0.69173,1.75595 -0.69173,3.785692 0,2.002096 0.0901,2.51034 0.657069,3.706352 0.733497,1.547319 2.295943,3.347975 3.592865,4.140618 2.442718,1.492929 5.740381,1.76926 8.530436,0.714815 z"
       id="path893" />
  </g>
</svg>
