<?xml version="1.0" encoding="UTF-8" standalone="no"?>
<svg
   xmlns:dc="http://purl.org/dc/elements/1.1/"
   xmlns:cc="http://creativecommons.org/ns#"
   xmlns:rdf="http://www.w3.org/1999/02/22-rdf-syntax-ns#"
   xmlns:svg="http://www.w3.org/2000/svg"
   xmlns="http://www.w3.org/2000/svg"
   xmlns:sodipodi="http://sodipodi.sourceforge.net/DTD/sodipodi-0.dtd"
   xmlns:inkscape="http://www.inkscape.org/namespaces/inkscape"
   width="512"
   height="512"
   viewBox="0 0 135.46667 135.46667"
   version="1.1"
   id="svg8"
   inkscape:version="1.0.1 (c497b03c, 2020-09-10)"
   sodipodi:docname="musicbrainz.svg">
  <defs
     id="defs2" />
  <sodipodi:namedview
     id="base"
     pagecolor="#ffffff"
     bordercolor="#666666"
     borderopacity="1.0"
     inkscape:pageopacity="0.0"
     inkscape:pageshadow="2"
     inkscape:zoom="1.5540715"
     inkscape:cx="400"
     inkscape:cy="251.13391"
     inkscape:document-units="mm"
     inkscape:current-layer="layer1"
     inkscape:document-rotation="0"
     showgrid="false"
     units="px"
     inkscape:window-width="1859"
     inkscape:window-height="1027"
     inkscape:window-x="0"
     inkscape:window-y="25"
     inkscape:window-maximized="1" />
  <metadata
     id="metadata5">
    <rdf:RDF>
      <cc:Work
         rdf:about="">
        <dc:format>image/svg+xml</dc:format>
        <dc:type
           rdf:resource="http://purl.org/dc/dcmitype/StillImage" />
        <dc:title></dc:title>
      </cc:Work>
    </rdf:RDF>
  </metadata>
  <g
     inkscape:label="Layer 1"
     inkscape:groupmode="layer"
     id="layer1">
    <path
       style="fill:#000000;stroke-width:0.142071"
       d="M 36.203846,118.63921 C 20.385561,109.40027 7.3605691,101.76381 7.259415,101.66929 7.1098786,101.52958 7.0759001,95.183098 7.0776686,67.722672 7.0788862,49.146538 7.1268079,33.876518 7.1842145,33.789287 7.3814809,33.489533 65.085918,-0.0874368 65.202835,0.02950147 65.377764,0.20446035 65.28151,135.36435 65.106433,135.40463 c -0.07818,0.018 -13.084279,-7.52644 -28.902554,-16.76542 z m 34.040339,16.73273 C 70.099092,135.22682 70.129821,0.08987748 70.274905,1.5578115e-4 70.410185,-0.08346568 128.1114,33.525917 128.28474,33.789287 c 0.0574,0.08725 0.10432,15.343781 0.10432,33.90347 0,18.559665 -0.047,33.816223 -0.10432,33.903453 -0.0795,0.12084 -57.791217,33.87046 -57.918344,33.87046 -0.01512,0 -0.07013,-0.0426 -0.12217,-0.0947 z"
       id="path857" />
    <path
       style="fill:#000000;stroke-width:0.264583"
       id="path851"
       d="" />
    <path
       style="fill:#000000;stroke-width:0.264583"
       id="path849"
       d="" />
    <path
       style="fill:#000000;stroke-width:0.264583"
       id="path847"
       d="" />
  </g>
</svg>
