<?xml version="1.0" encoding="UTF-8" standalone="no"?>
<svg
   xmlns:dc="http://purl.org/dc/elements/1.1/"
   xmlns:cc="http://creativecommons.org/ns#"
   xmlns:rdf="http://www.w3.org/1999/02/22-rdf-syntax-ns#"
   xmlns:svg="http://www.w3.org/2000/svg"
   xmlns="http://www.w3.org/2000/svg"
   width="4096"
   height="4096"
   viewBox="0 0 1083.7333 1083.7334"
   version="1.1"
   id="svg8">
  <defs
     id="defs2" />
  <metadata
     id="metadata5">
    <rdf:RDF>
      <cc:Work
         rdf:about="">
        <dc:format>image/svg+xml</dc:format>
        <dc:type
           rdf:resource="http://purl.org/dc/dcmitype/StillImage" />
        <dc:title></dc:title>
      </cc:Work>
    </rdf:RDF>
  </metadata>
  <g
     id="layer6"
     style="display:none">
    <g
       id="layer2"
       style="display:none">
      <g
         style="display:inline;overflow:visible"
         id="g1062"
         transform="matrix(3.3955575,-3.3955535,3.395467,3.3954633,-224.45355,541.86074)">
        <g
           id="g13">
          <path
             d="m 225.68,112.847 c 0,62.324 -50.515,112.839 -112.844,112.839 C 50.522,225.687 0,175.171 0,112.847 0,50.525 50.522,0 112.836,0 175.165,0 225.68,50.525 225.68,112.847 Z"
             id="path15" />
          <path
             d="m 151.792,112.847 c 0,21.511 -17.439,38.958 -38.956,38.958 -21.515,0 -38.955,-17.446 -38.955,-38.958 0,-21.517 17.44,-38.956 38.955,-38.956 21.517,0 38.956,17.44 38.956,38.956 z"
             id="path17"
             style="fill:#ffffff" />
          <path
             d="m 116.866,112.847 c 0,2.227 -1.803,4.032 -4.03,4.032 -2.219,0 -4.029,-1.805 -4.029,-4.032 0,-2.228 1.81,-4.031 4.029,-4.031 2.227,0 4.03,1.804 4.03,4.031 z"
             id="path119" />
          <path
             d="M 20.097,66.216 C 30.92,44.729 48.992,27.523 71.101,17.801"
             id="path23"
             style="fill:none;stroke:#ffffff;stroke-width:2.5007;stroke-linecap:round;stroke-linejoin:round" />
          <path
             d="m 207.882,154.579 c -10.452,23.771 -29.559,42.877 -53.335,53.329"
             id="path27"
             style="fill:none;stroke:#ffffff;stroke-width:2.5007;stroke-linecap:round;stroke-linejoin:round" />
          <path
             d="M 26.954,65.298 C 36.748,47.633 51.837,33.313 70.072,24.469"
             id="path31"
             style="fill:none;stroke:#ffffff;stroke-width:2.5007;stroke-linecap:round;stroke-linejoin:round" />
          <path
             d="m 201.246,155.543 c -9.625,19.901 -25.782,36.058 -45.683,45.696"
             id="path35"
             style="fill:none;stroke:#ffffff;stroke-width:2.5007;stroke-linecap:round;stroke-linejoin:round" />
          <path
             d="M 31.278,68.092 C 40.793,50.792 55.653,36.846 73.627,28.478"
             id="path41"
             style="fill:none;stroke:#ffffff;stroke-width:2.5007;stroke-linecap:round;stroke-linejoin:round" />
          <path
             d="m 197.293,151.87 c -9.156,19.784 -25.053,35.804 -44.745,45.11"
             id="path45"
             style="fill:none;stroke:#ffffff;stroke-width:2.5007;stroke-linecap:round;stroke-linejoin:round" />
          <path
             d="m 194.591,145.045 c -7.587,19.257 -21.783,35.187 -39.797,45"
             id="path49"
             style="fill:none;stroke:#ffffff;stroke-width:2.5007;stroke-linecap:round;stroke-linejoin:round" />
          <path
             d="M 34.828,72.416 C 43.183,56.334 56.357,43.166 72.436,34.821"
             id="path53"
             style="fill:none;stroke:#ffffff;stroke-width:2.5007;stroke-linecap:round;stroke-linejoin:round" />
          <path
             d="m 188.86,145.892 c -7.666,17.616 -21.282,32.054 -38.312,40.767"
             id="path57"
             style="fill:none;stroke:#ffffff;stroke-width:2.5007;stroke-linecap:round;stroke-linejoin:round" />
          <path
             d="M 40.22,72.872 C 48.523,57.822 61.372,45.631 76.909,38.142"
             id="path61"
             style="fill:none;stroke:#ffffff;stroke-width:2.5007;stroke-linecap:round;stroke-linejoin:round" />
          <path
             d="M 42.851,79.472 C 49.63,65.272 60.61,53.462 74.175,45.638"
             id="path65"
             style="fill:none;stroke:#ffffff;stroke-width:2.5007;stroke-linecap:round;stroke-linejoin:round" />
          <path
             d="m 176.435,145.879 c -6.18,11.878 -15.591,21.803 -27.065,28.621"
             id="path69"
             style="fill:none;stroke:#ffffff;stroke-width:2.5007;stroke-linecap:round;stroke-linejoin:round" />
          <path
             d="M 50.691,77.164 C 57.516,65.305 67.636,55.582 79.807,49.249"
             id="path73"
             style="fill:none;stroke:#ffffff;stroke-width:2.5007;stroke-linecap:round;stroke-linejoin:round" />
          <path
             d="m 169.121,146.979 c -6.206,10.204 -15.102,18.586 -25.704,24.16"
             id="path77"
             style="fill:none;stroke:#ffffff;stroke-width:2.5007;stroke-linecap:round;stroke-linejoin:round" />
          <path
             d="M 57.354,77.446 C 63.886,67.225 73.172,58.925 84.158,53.598"
             id="path81"
             style="fill:none;stroke:#ffffff;stroke-width:2.5007;stroke-linecap:round;stroke-linejoin:round" />
          <path
             d="m 165.924,141.229 c -4.956,9.247 -12.263,17.055 -21.119,22.623"
             id="path85"
             style="fill:none;stroke:#ffffff;stroke-width:2.5007;stroke-linecap:round;stroke-linejoin:round" />
          <path
             d="M 62.042,80.556 C 67.532,71.937 75.145,64.813 84.151,59.925"
             id="path89"
             style="fill:none;stroke:#ffffff;stroke-width:2.5007;stroke-linecap:round;stroke-linejoin:round" />
          <path
             d="m 162.674,136.573 c -4.688,9.839 -12.21,18.071 -21.503,23.646"
             id="path93"
             style="fill:none;stroke:#ffffff;stroke-width:2.5007;stroke-linecap:round;stroke-linejoin:round" />
          <path
             d="M 64.289,86.57 C 69.394,77.163 77.15,69.403 86.554,64.298"
             id="path97"
             style="fill:none;stroke:#ffffff;stroke-width:2.5007;stroke-linecap:round;stroke-linejoin:round" />
          <path
             d="m 156.897,135.563 c -4.337,8.4 -11.005,15.401 -19.152,20.142"
             id="path101"
             style="fill:none;stroke:#ffffff;stroke-width:2.5007;stroke-linecap:round;stroke-linejoin:round" />
          <path
             d="m 69.974,87.932 c 5.229,-8.974 13.2,-16.157 22.76,-20.406"
             id="path105"
             style="fill:none;stroke:#ffffff;stroke-width:2.5007;stroke-linecap:round;stroke-linejoin:round" />
          <path
             d="m 154.065,129.807 c -4.11,9.957 -11.709,18.104 -21.283,22.904"
             id="path109"
             style="fill:none;stroke:#ffffff;stroke-width:2.5007;stroke-linecap:round;stroke-linejoin:round" />
          <path
             d="m 73.236,92.376 c 4.24,-8.186 10.941,-14.89 19.127,-19.13"
             id="path113"
             style="fill:none;stroke:#ffffff;stroke-width:2.5007;stroke-linecap:round;stroke-linejoin:round" />
          <path
             d="m 185.226,140.644 c -6.082,15.844 -17.219,29.175 -31.428,38.03"
             id="path117"
             style="fill:none;stroke:#ffffff;stroke-width:2.5007;stroke-linecap:round;stroke-linejoin:round" />
        </g>
      </g>
    </g>
    <g
       id="layer3"
       style="display:inline">
      <circle
         style="display:inline;fill:#000000;fill-opacity:1;fill-rule:evenodd;stroke:none;stroke-width:143.877;stroke-linecap:butt;stroke-linejoin:round;stroke-miterlimit:4;stroke-dasharray:none;stroke-opacity:1;paint-order:fill markers stroke"
         id="path10"
         cx="541.8667"
         cy="541.8667"
         r="541.8667" />
    </g>
    <g
       id="layer1"
       style="display:inline">
      <rect
         style="fill:#000000;fill-opacity:1;stroke:none;stroke-width:146.647;stroke-linecap:butt;stroke-linejoin:round;stroke-miterlimit:4;stroke-dasharray:none;stroke-opacity:1;paint-order:fill markers stroke"
         id="rect835"
         width="1083.7334"
         height="169.33334"
         x="-4.4408921e-16"
         y="745.06665" />
      <rect
         style="fill:#ffffff;fill-opacity:1;stroke:none;stroke-width:63.5;stroke-linecap:butt;stroke-linejoin:round;stroke-miterlimit:4;stroke-dasharray:none;stroke-opacity:1;paint-order:fill markers stroke"
         id="rect835-6"
         width="1083.7334"
         height="31.75"
         x="0"
         y="914.40002" />
    </g>
    <g
       id="layer4"
       style="display:inline">
      <circle
         style="display:inline;fill:#ffffff;fill-opacity:1;fill-rule:evenodd;stroke:none;stroke-width:98.9161;stroke-linecap:butt;stroke-linejoin:round;stroke-miterlimit:4;stroke-dasharray:none;stroke-opacity:1;paint-order:fill markers stroke"
         id="path10-1"
         cx="541.86664"
         cy="541.86664"
         r="372.53333" />
    </g>
  </g>
  <g
     id="layer7"
     style="display:none">
    <ellipse
       style="fill:#ffffff;stroke-width:33.2615"
       id="path94"
       cx="540.62933"
       cy="527.21167"
       rx="456.42538"
       ry="386.5386" />
  </g>
  <g
     id="layer10"
     style="display:inline">
    <path
       id="path10-6"
       style="display:inline;fill:#000000;fill-opacity:1;fill-rule:evenodd;stroke:none;stroke-width:543.787;stroke-linecap:butt;stroke-linejoin:round;stroke-miterlimit:4;stroke-dasharray:none;stroke-opacity:1;paint-order:fill markers stroke"
       d="M 2046.625,0 C 1503.6999,0.36453927 983.13654,216.29703 599.35938,600.33203 215.58221,984.36704 -9.5872302e-5,1505.0748 0,2048 c 6.0386768e-4,263.2258 50.744807,523.9834 149.45508,768 H 0 v 640 H 2048 A 1408,1408 0 0 1 640,2048 1408,1408 0 0 1 2048,640 1408,1408 0 0 1 3456,2048 1408,1408 0 0 1 2048,3456 H 4096 V 2816 H 3946.5469 C 4045.2565,2571.9833 4096,2311.2257 4096,2048 4096,1504.8366 3880.2288,983.92021 3496.1543,599.8457 3112.0798,215.7712 2591.1634,2.6521646e-5 2048,0 Z"
       transform="scale(0.26458334)" />
  </g>
  <g
     id="layer5"
     style="display:inline">
    <path
       style="fill:none;stroke:#a0a0a0;stroke-width:14.81666689;stroke-linecap:butt;stroke-linejoin:miter;stroke-miterlimit:4;stroke-dasharray:none;stroke-opacity:0.82999998"
       d="M 31.75,829.73335 H 190.5 c 0,0 -105.83333,-88.90001 -105.833331,-287.86667 -10e-7,-270.93334 213.970261,-457.20001 457.200001,-457.20001 243.22974,0 457.20001,186.26667 457.20002,457.20001 10e-6,198.96667 -105.83334,287.86667 -105.83334,287.86667 h 158.74995"
       id="path1328" />
  </g>
  <g
     id="layer9"
     style="display:inline">
    <path
       d="M 67.401303,700.11047 C 31.193022,590.40206 34.135132,470.61527 76.196783,362.53228"
       id="path23-1"
       style="display:inline;overflow:visible;fill:none;stroke:#ffffff;stroke-width:12.0083;stroke-linecap:round;stroke-linejoin:round;stroke-opacity:0.947368" />
    <path
       d="M 144.71766,673.7101 C 117.99281,580.4732 120.60529,480.61466 152.49379,388.66726"
       id="path31-4"
       style="display:inline;overflow:visible;fill:none;stroke:#ffffff;stroke-width:12.0083;stroke-linecap:round;stroke-linejoin:round;stroke-opacity:0.947368" />
    <path
       d="M 227.90238,671.14243 C 201.66636,588.16674 201.68793,498.72225 227.94992,415.79"
       id="path53-3"
       style="display:inline;overflow:visible;fill:none;stroke:#000000;stroke-width:12.0083;stroke-linecap:round;stroke-linejoin:round;stroke-opacity:1" />
    <path
       d="M 267.99084,667.85829 C 242.79369,596.62425 239.97645,519.24066 259.47105,446.61386"
       id="path65-1"
       style="display:inline;overflow:visible;fill:none;stroke:#000000;stroke-width:12.0083;stroke-linecap:round;stroke-linejoin:round;stroke-opacity:1" />
    <path
       d="M 292.59611,633.40043 C 275.50395,569.95897 276.85287,502.58188 296.6767,439.75112"
       id="path73-8"
       style="display:inline;overflow:visible;fill:none;stroke:#000000;stroke-width:12.0083;stroke-linecap:round;stroke-linejoin:round;stroke-opacity:1" />
    <path
       d="M 326.76157,611.73337 C 314.23629,554.84858 317.58506,495.13513 336.801,439.74394"
       id="path81-2"
       style="display:inline;overflow:visible;fill:none;stroke:#000000;stroke-width:12.0083;stroke-linecap:round;stroke-linejoin:round;stroke-opacity:1" />
    <path
       d="m 363.82319,606.3749 c -10.62392,-47.90708 -8.96285,-97.94671 5.0205,-145.12409"
       id="path89-7"
       style="display:inline;overflow:visible;fill:none;stroke:#000000;stroke-width:12.0083;stroke-linecap:round;stroke-linejoin:round;stroke-opacity:1" />
    <path
       d="M 402.45669,619.16541 C 387.84985,569.88999 387.83697,517.20528 402.43493,467.93966"
       id="path97-4"
       style="display:inline;overflow:visible;fill:none;stroke:#000000;stroke-width:12.0083;stroke-linecap:round;stroke-linejoin:round;stroke-opacity:1" />
    <path
       d="m 436.67581,608.49946 c -13.39813,-42.19241 -13.40771,-87.7092 -0.008,-129.90197"
       id="path113-1"
       style="display:inline;overflow:visible;fill:none;stroke:#000000;stroke-width:12.0083;stroke-linecap:round;stroke-linejoin:round;stroke-opacity:1" />
  </g>
  <g
     id="g1537"
     style="display:inline">
    <path
       d="m 1016.9229,380.52397 c 36.2085,109.70841 33.2664,229.4952 -8.7955,337.57819"
       id="path1519"
       style="display:inline;overflow:visible;fill:none;stroke:#ffffff;stroke-width:12.0083;stroke-linecap:round;stroke-linejoin:round;stroke-opacity:1" />
    <path
       d="m 939.60641,406.92434 c 26.72485,93.2369 24.11237,193.09544 -7.77613,285.04284"
       id="path1521"
       style="display:inline;overflow:visible;fill:none;stroke:#ffffff;stroke-width:12.0083;stroke-linecap:round;stroke-linejoin:round;stroke-opacity:1" />
    <path
       d="m 856.42169,409.49201 c 26.23602,82.97569 26.21445,172.42018 -0.0475,255.35243"
       id="path1523"
       style="display:inline;overflow:visible;fill:none;stroke:#000000;stroke-width:12.0083;stroke-linecap:round;stroke-linejoin:round;stroke-opacity:1" />
    <path
       d="m 816.33323,412.77615 c 25.19715,71.23404 28.01439,148.61763 8.51979,221.24443"
       id="path1525"
       style="display:inline;overflow:visible;fill:none;stroke:#000000;stroke-width:12.0083;stroke-linecap:round;stroke-linejoin:round;stroke-opacity:1" />
    <path
       d="m 791.72796,447.23401 c 17.09216,63.44146 15.74324,130.81855 -4.08059,193.64931"
       id="path1527"
       style="display:inline;overflow:visible;fill:none;stroke:#000000;stroke-width:12.0083;stroke-linecap:round;stroke-linejoin:round;stroke-opacity:1" />
    <path
       d="m 757.5625,468.90107 c 12.52528,56.88479 9.17651,116.59824 -10.03943,171.98943"
       id="path1529"
       style="display:inline;overflow:visible;fill:none;stroke:#000000;stroke-width:12.0083;stroke-linecap:round;stroke-linejoin:round;stroke-opacity:1" />
    <path
       d="m 720.50088,474.25954 c 10.62392,47.90708 8.96285,97.94671 -5.0205,145.12409"
       id="path1531"
       style="display:inline;overflow:visible;fill:none;stroke:#000000;stroke-width:12.0083;stroke-linecap:round;stroke-linejoin:round;stroke-opacity:1" />
    <path
       d="m 681.86737,461.46903 c 14.60685,49.27542 14.61973,101.96013 0.0218,151.22575"
       id="path1533"
       style="display:inline;overflow:visible;fill:none;stroke:#000000;stroke-width:12.0083;stroke-linecap:round;stroke-linejoin:round;stroke-opacity:1" />
    <path
       d="m 647.64823,472.13498 c 13.39814,42.19241 13.40772,87.7092 0.008,129.90197"
       id="path1535"
       style="display:inline;overflow:visible;fill:none;stroke:#000000;stroke-width:12.0083;stroke-linecap:round;stroke-linejoin:round;stroke-opacity:1" />
  </g>
</svg>
