<?xml version="1.0" encoding="UTF-8" standalone="no"?>
<svg
   xmlns:dc="http://purl.org/dc/elements/1.1/"
   xmlns:cc="http://creativecommons.org/ns#"
   xmlns:rdf="http://www.w3.org/1999/02/22-rdf-syntax-ns#"
   xmlns:svg="http://www.w3.org/2000/svg"
   xmlns="http://www.w3.org/2000/svg"
   xmlns:sodipodi="http://sodipodi.sourceforge.net/DTD/sodipodi-0.dtd"
   xmlns:inkscape="http://www.inkscape.org/namespaces/inkscape"
   width="448mm"
   height="512mm"
   viewBox="0 0 448 512"
   version="1.1"
   id="svg65"
   inkscape:version="1.0.1 (c497b03c, 2020-09-10)"
   sodipodi:docname="reverbnation-square.svg">
  <defs
     id="defs59" />
  <sodipodi:namedview
     id="base"
     pagecolor="#ffffff"
     bordercolor="#666666"
     borderopacity="1.0"
     inkscape:pageopacity="0.0"
     inkscape:pageshadow="2"
     inkscape:zoom="0.42976519"
     inkscape:cx="400"
     inkscape:cy="1140.7434"
     inkscape:document-units="mm"
     inkscape:current-layer="layer1"
     inkscape:document-rotation="0"
     showgrid="false"
     inkscape:window-width="1688"
     inkscape:window-height="1035"
     inkscape:window-x="0"
     inkscape:window-y="23"
     inkscape:window-maximized="0" />
  <metadata
     id="metadata62">
    <rdf:RDF>
      <cc:Work
         rdf:about="">
        <dc:format>image/svg+xml</dc:format>
        <dc:type
           rdf:resource="http://purl.org/dc/dcmitype/StillImage" />
        <dc:title></dc:title>
      </cc:Work>
    </rdf:RDF>
  </metadata>
  <g
     inkscape:label="Layer 1"
     inkscape:groupmode="layer"
     id="layer1">
    <g
       id="g46"
       transform="matrix(0.45718936,0,0,0.45718951,-4.5718936,27.428105)">
      <g
         id="g14">
        <path
           d="M 937.9,10 H 62.1 C 33.3,10 10,33.3 10,62.1 v 875.7 c 0,28.8 23.3,52.1 52.1,52.1 h 875.7 c 28.8,0 52.1,-23.3 52.1,-52.1 V 62.1 C 990,33.3 966.7,10 937.9,10 Z m -39,405.5 c -77.8,56.5 -155.5,113 -233.5,169.1 -7.9,5.6 -9.4,10.1 -6.3,19.3 30.3,91.7 60.1,183.5 89.9,275.3 0.9,2.6 1.6,5.3 3.1,10.1 -4.8,-3.3 -7.9,-5.4 -10.8,-7.6 C 664.1,825.5 586.9,769.4 509.9,713 c -7.2,-5.3 -12,-5.8 -19.6,-0.2 C 411,770.4 331.4,827.6 252,885 c -2,1.4 -4,2.7 -7.6,5 11.4,-35.2 22.1,-68.7 33,-102.1 20.4,-62.8 40.7,-125.7 61.4,-188.4 2.4,-7.2 0.4,-10.6 -5.3,-14.8 C 255.2,528.5 177.2,471.9 99,415.4 c -2.5,-1.8 -5.1,-3.7 -7.4,-7.7 7.1,0 14.2,0 21.2,0 92,0 184,-0.1 276,0.2 9.2,0 13.1,-2.6 15.9,-11.6 29.8,-92.8 60,-185.5 90.1,-278.2 0.7,-2.1 1.6,-4.1 3.1,-8 1.6,4 2.8,6.7 3.7,9.4 30.6,92.2 61.3,184.4 91.4,276.8 2.9,8.9 6.9,11.5 16,11.5 95.8,-0.2 191.7,0 287.5,0.1 3.1,0 6.2,0 11.8,0 -4.3,3.5 -6.8,5.6 -9.4,7.6 z"
           id="path12" />
      </g>
      <g
         id="g16" />
      <g
         id="g18" />
      <g
         id="g20" />
      <g
         id="g22" />
      <g
         id="g24" />
      <g
         id="g26" />
      <g
         id="g28" />
      <g
         id="g30" />
      <g
         id="g32" />
      <g
         id="g34" />
      <g
         id="g36" />
      <g
         id="g38" />
      <g
         id="g40" />
      <g
         id="g42" />
      <g
         id="g44" />
    </g>
  </g>
</svg>
