<?xml version="1.0" encoding="UTF-8" standalone="no"?>
<svg
   xmlns:dc="http://purl.org/dc/elements/1.1/"
   xmlns:cc="http://creativecommons.org/ns#"
   xmlns:rdf="http://www.w3.org/1999/02/22-rdf-syntax-ns#"
   xmlns:svg="http://www.w3.org/2000/svg"
   xmlns="http://www.w3.org/2000/svg"
   xmlns:sodipodi="http://sodipodi.sourceforge.net/DTD/sodipodi-0.dtd"
   xmlns:inkscape="http://www.inkscape.org/namespaces/inkscape"
   enable-background="new 0 0 56.693 56.693"
   height="512"
   id="Layer_1"
   version="1.1"
   viewBox="0 0 448 511.99998"
   width="448"
   xml:space="preserve"
   sodipodi:docname="soundcloud-square.svg"
   inkscape:version="1.0.1 (c497b03c, 2020-09-10)"><metadata
     id="metadata15"><rdf:RDF><cc:Work
         rdf:about=""><dc:format>image/svg+xml</dc:format><dc:type
           rdf:resource="http://purl.org/dc/dcmitype/StillImage" /><dc:title></dc:title></cc:Work></rdf:RDF></metadata><sodipodi:namedview
     pagecolor="#ffffff"
     bordercolor="#666666"
     borderopacity="1"
     objecttolerance="10"
     gridtolerance="10"
     guidetolerance="10"
     inkscape:pageopacity="0"
     inkscape:pageshadow="2"
     inkscape:window-width="1417"
     inkscape:window-height="985"
     id="namedview13"
     showgrid="false"
     inkscape:zoom="1"
     inkscape:cx="250"
     inkscape:cy="250"
     inkscape:window-x="0"
     inkscape:window-y="23"
     inkscape:window-maximized="0"
     inkscape:current-layer="Layer_1" /><defs
     id="defs7" /><path
     d="M 44.8,32 C 19.9808,32 0,51.9808 0,76.8 V 435.20001 C 0,460.01921 19.9808,480 44.8,480 h 358.4 c 24.8192,0 44.8,-19.98079 44.8,-44.79999 V 76.8 C 448,51.9808 428.0192,32 403.2,32 Z m 215.796,143.33201 c 38.97328,0 70.90958,29.88221 74.284,67.98399 5.0268,-2.09856 10.56526,-3.276 16.352,-3.276 23.3491,0 42.28,18.90291 42.28,42.25201 0,23.3491 -18.92392,42.27999 -42.28,42.27999 -0.75296,0 -117.06844,-0.0421 -117.18,-0.056 -2.52384,-0.26492 -4.53614,-2.41831 -4.564,-4.98399 V 185.356 c 0.0278,-2.47504 0.85986,-3.72197 4.06,-4.95599 8.206,-3.17923 17.50338,-5.068 27.048,-5.068 z m -39.76,9.884 c 2.5378,0 4.61316,2.08929 4.648,4.648 l 2.072,95.228 -2.072,34.552 c -0.0418,2.54476 -2.11718,4.62 -4.648,4.62 -2.53082,0 -4.60614,-2.07513 -4.648,-4.592 l -1.904,-34.58 1.904,-95.228 c 0.0418,-2.55871 2.11718,-4.648 4.648,-4.648 z m -14.868,8.232 c 0.1444,-0.0154 0.27184,0 0.42,0 2.36348,0 4.31916,1.94164 4.368,4.34 l 1.848,87.304 -1.848,35.05599 v 0.028 c -0.0636,2.38516 -2.01394,4.312 -4.368,4.312 -2.37046,0 -4.29816,-1.96954 -4.34,-4.34 0,0 -1.652,-35.01429 -1.652,-35.084 l 1.652,-87.27597 c 0.0392,-2.24847 1.75294,-4.11752 3.92,-4.34 z M 163.24,203.472 c 1.89638,0 3.40928,1.49882 3.472,3.44401 l 2.464,78.14799 -2.464,35.868 c -0.0627,1.93124 -1.57562,3.44401 -3.472,3.44401 -1.88939,0 -3.43728,-1.51976 -3.5,-3.44401 l -2.156,-35.868 2.156,-78.14799 c 0.0627,-1.94519 1.61061,-3.44401 3.5,-3.44401 z m 14.28,1.68001 c 2.05673,0 3.72427,1.65343 3.78,3.75199 l 2.212,76.16 -2.212,35.532 v 0.028 c -0.07,2.08506 -1.73259,3.72401 -3.78,3.72401 -2.07066,0 -3.73816,-1.66739 -3.78,-3.75201 l -1.988,-35.532 1.988,-76.16 c 0.0488,-2.09856 1.70934,-3.75199 3.78,-3.75199 z M 149.072,206.3 c 1.7151,0 3.12229,1.37918 3.192,3.16401 l 2.632,75.59999 -2.632,36.092 v 0.028 c -0.0835,1.75731 -1.48606,3.13599 -3.192,3.13599 -1.73602,0 -3.13618,-1.40704 -3.192,-3.16398 l -2.352,-36.09201 2.352,-75.59999 c 0.0627,-1.78479 1.45598,-3.16397 3.192,-3.16397 z m 42.84,1.34401 c 2.22406,0 4.00427,1.80109 4.06,4.05999 l 2.044,73.36 -2.044,35.28001 c -0.0558,2.27286 -1.83594,4.06 -4.06,4.06 -2.238,0 -4.01816,-1.77298 -4.06,-4.004 l -1.848,-35.33601 1.82,-73.36 c 0.0488,-2.27285 1.85,-4.05999 4.088,-4.05999 z m -56.896,4.76 c 1.55474,0 2.8353,1.26651 2.912,2.884 l 2.828,69.77599 -2.828,36.456 v 0.028 c -0.0901,1.59028 -1.37325,2.82801 -2.912,2.82801 -1.54778,0 -2.81429,-1.2664 -2.884,-2.856 l -2.52,-36.45601 2.52,-69.77599 c 0.0697,-1.61751 1.32925,-2.884 2.884,-2.884 z m -13.944,13.272 c 1.38045,0 2.5273,1.13279 2.604,2.576 l 3.052,56.78399 -3.052,36.70801 c -0.0767,1.44319 -1.22355,2.576 -2.604,2.576 -1.38742,0 -2.5273,-1.14674 -2.604,-2.576 l -2.688,-36.70801 2.688,-56.78399 c 0.0767,-1.44321 1.21658,-2.576 2.604,-2.576 z M 93.52,245.416 c 1.045794,0 1.918388,0.84461 2.016,1.98799 l 3.444,37.63201 -3.444,36.40001 c -0.09762,1.12945 -0.970206,1.95999 -2.016,1.95999 -1.073686,0 -1.932312,-0.83054 -2.016,-1.95999 L 88.452,285.036 91.504,247.40399 c 0.08368,-1.14338 0.949294,-1.98799 2.016,-1.98799 z m -13.608,1.31601 c 0.892416,0 1.596448,0.69695 1.708,1.67999 l 3.64,36.624 -3.64,35.30801 c -0.10458,0.96212 -0.815584,1.65199 -1.708,1.65199 -0.906358,0 -1.645362,-0.69695 -1.736,-1.67999 L 74.984,285.036 c 0,0 3.192,-36.61011 3.192,-36.624 0.09064,-0.97607 0.829642,-1.67999 1.736,-1.67999 z m 27.328,1.12 c 1.22706,0 2.24031,0.97121 2.324,2.26799 l 3.248,34.916 -3.248,36.68001 v 0.028 c -0.10268,1.28969 -1.10569,2.26802 -2.324,2.26802 -1.24798,0 -2.2193,-0.98528 -2.296,-2.29602 L 102.06,285.036 104.944,250.12 c 0.0767,-1.28982 1.05499,-2.26801 2.296,-2.26801 z M 66.388,252.78 c 0.725088,0 1.337478,0.55628 1.456,1.372 l 3.836,30.884 -3.836,30.18401 c -0.11852,0.81572 -0.702912,1.37199 -1.427998,1.37199 -0.72508,0 -1.35142,-0.57022 -1.456002,-1.37199 L 61.572,285.036 c 0,0 3.388,-30.87003 3.388,-30.884 0.1046,-0.78783 0.70292,-1.372 1.428,-1.372 z m -12.684,11.81601 c 0.697196,0 1.267418,0.55616 1.372,1.344 l 2.968,19.09599 -2.968,18.76 c -0.11156,0.77391 -0.674804,1.34401 -1.372,1.34401 -0.711138,0 -1.30239,-0.55617 -1.4,-1.34401 l -2.492,-18.76 2.492,-19.09599 c 0.09762,-0.78784 0.681882,-1.344 1.4,-1.344 z"
     id="rect2986"
     style="fill:#000000;fill-opacity:1;stroke:none;stroke-width:0.895999" /></svg>
