<?xml version="1.0" encoding="UTF-8" standalone="no"?>
<svg
   xmlns:dc="http://purl.org/dc/elements/1.1/"
   xmlns:cc="http://creativecommons.org/ns#"
   xmlns:rdf="http://www.w3.org/1999/02/22-rdf-syntax-ns#"
   xmlns:svg="http://www.w3.org/2000/svg"
   xmlns="http://www.w3.org/2000/svg"
   xmlns:sodipodi="http://sodipodi.sourceforge.net/DTD/sodipodi-0.dtd"
   xmlns:inkscape="http://www.inkscape.org/namespaces/inkscape"
   enable-background="new 0 0 56.693 56.693"
   height="512"
   id="Layer_1"
   version="1.1"
   viewBox="0 0 448 511.99998"
   width="448"
   xml:space="preserve"
   sodipodi:docname="spotify-square.svg"
   inkscape:version="1.0.1 (c497b03c, 2020-09-10)"><metadata
     id="metadata15"><rdf:RDF><cc:Work
         rdf:about=""><dc:format>image/svg+xml</dc:format><dc:type
           rdf:resource="http://purl.org/dc/dcmitype/StillImage" /><dc:title /></cc:Work></rdf:RDF></metadata><sodipodi:namedview
     pagecolor="#ffffff"
     bordercolor="#666666"
     borderopacity="1"
     objecttolerance="10"
     gridtolerance="10"
     guidetolerance="10"
     inkscape:pageopacity="0"
     inkscape:pageshadow="2"
     inkscape:window-width="1417"
     inkscape:window-height="985"
     id="namedview13"
     showgrid="false"
     inkscape:zoom="0.9229923"
     inkscape:cx="41.439213"
     inkscape:cy="250"
     inkscape:window-x="0"
     inkscape:window-y="25"
     inkscape:window-maximized="0"
     inkscape:current-layer="Layer_1"
     inkscape:document-rotation="0" /><defs
     id="defs7" /><path
     id="rect2986"
     style="fill:#000000;fill-opacity:1;stroke:none;stroke-width:0.895999"
     d="M 44.800781 32 C 19.981581 32 -9.4739031e-15 51.981581 0 76.800781 L 0 435.19922 C 0 460.01842 19.981581 480 44.800781 480 L 403.19922 480 C 428.01842 480 448 460.01842 448 435.19922 L 448 76.800781 C 448 51.981581 428.01842 32 403.19922 32 L 44.800781 32 z M 224 82 C 320.11429 82 398 159.88571 398 256 C 398 352.11429 320.11429 430 224 430 C 127.88571 430 50 352.11429 50 256 C 50 159.88571 127.88571 82 224 82 z M 196.68164 173.80664 C 169.93062 173.80664 143.32018 177.07301 117.46875 183.46484 C 108.89895 185.59546 103.739 195.917 105.82227 204.43945 C 107.95288 212.9619 116.56888 218.1692 125.13867 216.08594 C 148.43337 210.30961 172.5347 207.375 196.68164 207.375 C 243.03429 207.375 287.44488 217.79127 328.63672 238.33984 C 330.90937 239.47617 333.32359 240.04492 335.73828 240.04492 C 341.6093 240.04492 347.24364 235.12014 350.03711 229.5332 C 353.96691 221.67361 350.74826 212.06214 342.88867 208.17969 C 297.19888 185.31112 248.00572 173.80664 196.68164 173.80664 z M 196.72852 243.5 C 172.72362 243.5 148.81382 246.67356 125.75586 252.9707 C 118.32239 255.00662 113.96603 267.69396 116.00195 275.08008 C 118.03787 282.4662 125.70716 286.8699 133.14062 284.83398 C 153.78389 279.1997 175.23301 276.35937 196.72852 276.35938 C 235.88443 276.35938 273.19307 285.45004 307.70898 303.39453 C 309.7449 304.48351 311.9236 304.95703 314.10156 304.95703 C 319.16768 304.95703 323.99647 297.1922 326.50586 292.41016 C 330.00953 285.63954 327.35897 277.21118 320.54102 273.66016 C 282.56877 253.96383 239.76688 243.5 196.72852 243.5 z M 196.68164 308.65039 C 175.13878 308.65039 153.83231 311.86887 133.42578 318.16602 C 127.08129 320.10724 123.57635 333.50754 125.51758 339.80469 C 127.4588 346.14918 134.18333 349.65216 140.48047 347.71094 C 158.61435 342.07665 177.55348 339.23633 196.68164 339.23633 C 228.64082 339.23633 260.26695 347.38029 288.1543 362.7207 C 290.00083 363.71499 291.94307 364.1875 293.93164 364.1875 C 298.14552 364.1875 302.26392 361.96152 304.39453 357.98438 C 307.56678 352.20805 305.48336 338.24256 299.70703 335.07031 C 268.31601 317.78868 232.66531 308.65039 196.68164 308.65039 z " /><g
     id="g4926"
     transform="matrix(0.47346939,0,0,0.47346939,-12.734694,19.265306)"
     style="fill:#ffffff" /></svg>
