<?xml version="1.0" encoding="UTF-8" standalone="no"?>
<svg
   xmlns:dc="http://purl.org/dc/elements/1.1/"
   xmlns:cc="http://creativecommons.org/ns#"
   xmlns:rdf="http://www.w3.org/1999/02/22-rdf-syntax-ns#"
   xmlns:svg="http://www.w3.org/2000/svg"
   xmlns="http://www.w3.org/2000/svg"
   xmlns:sodipodi="http://sodipodi.sourceforge.net/DTD/sodipodi-0.dtd"
   xmlns:inkscape="http://www.inkscape.org/namespaces/inkscape"
   class="Header_logo__1q4mV"
   style="opacity:1"
   fill="#ffffff"
   viewBox="0 0 268.00001 306.71"
   version="1.1"
   id="svg835"
   sodipodi:docname="spring.svg"
   width="268"
   height="306.70999"
   inkscape:version="1.0.1 (c497b03c, 2020-09-10)">
  <metadata
     id="metadata841">
    <rdf:RDF>
      <cc:Work
         rdf:about="">
        <dc:format>image/svg+xml</dc:format>
        <dc:type
           rdf:resource="http://purl.org/dc/dcmitype/StillImage" />
        <dc:title></dc:title>
      </cc:Work>
    </rdf:RDF>
  </metadata>
  <defs
     id="defs839" />
  <sodipodi:namedview
     pagecolor="#ffffff"
     bordercolor="#666666"
     borderopacity="1"
     objecttolerance="10"
     gridtolerance="10"
     guidetolerance="10"
     inkscape:pageopacity="0"
     inkscape:pageshadow="2"
     inkscape:window-width="1866"
     inkscape:window-height="1027"
     id="namedview837"
     showgrid="false"
     inkscape:zoom="0.56524036"
     inkscape:cx="756.66"
     inkscape:cy="153.355"
     inkscape:window-x="0"
     inkscape:window-y="25"
     inkscape:window-maximized="1"
     inkscape:current-layer="svg835" />
  <path
     d="m 89.81,306.71 c -23.5,0 -56.67,-6.86 -89.81,-36.68 l 26,-28.91 c 46.47,41.83 94.89,25.31 109.84,11.35 1,-1 2,-1.95 3,-2.94 C 89.9,244.77 54.12,210.09 51.65,207.65 14.17,170.74 5.65,120.65 32.33,93.53 59.01,66.41 109.2,74.08 146.7,110.88 c 3.29,3.14 39.83,39 47,84.4 21.90244,-16.32342 34.81939,-42.02388 34.85,-69.34 0.18875,-23.03013 -9.01993,-45.141808 -25.5,-61.23 C 186,48.06 161.87,38.89 135.24,38.89 V 0 c 36.81,0 70.53,13.08 94.95,36.83 24.05,23.38 37.28,55 37.28,89.11 -0.0824,50.97901 -30.96128,96.85481 -78.16,116.12 -5.31,14.06 -14.31,27.05 -26.91,38.84 -12.39,11.57 -36.62,24.39 -67.48,25.7 -1.65,0.08 -3.35,0.11 -5.11,0.11 z M 73.45,116 c -5.43,0 -10.1,1.47 -13.36,4.79 C 50.52,130.53 56.57,157.9 79,180 l 0.1,0.11 c 0.32,0.31 35.42,34.35 77,30.86 v -0.07 c 0.19,-36.72 -35.89,-71.53 -36.26,-71.88 l -0.25,-0.24 C 106.25,125.65 87.34,116 73.45,116 Z"
     id="path833"
     style="fill:#000000"
     sodipodi:nodetypes="scccccscccccccccccsscccccccs" />
</svg>
