<?xml version="1.0" encoding="UTF-8" standalone="no"?>
<svg
   xmlns:dc="http://purl.org/dc/elements/1.1/"
   xmlns:cc="http://creativecommons.org/ns#"
   xmlns:rdf="http://www.w3.org/1999/02/22-rdf-syntax-ns#"
   xmlns:svg="http://www.w3.org/2000/svg"
   xmlns="http://www.w3.org/2000/svg"
   xmlns:sodipodi="http://sodipodi.sourceforge.net/DTD/sodipodi-0.dtd"
   xmlns:inkscape="http://www.inkscape.org/namespaces/inkscape"
   enable-background="new 0 0 56.693 56.693"
   height="512"
   id="Layer_1"
   version="1.1"
   viewBox="0 0 448 511.99998"
   width="448"
   xml:space="preserve"
   sodipodi:docname="tiktok-square-new.svg"
   inkscape:version="1.0.1 (c497b03c, 2020-09-10)"><metadata
     id="metadata15"><rdf:RDF><cc:Work
         rdf:about=""><dc:format>image/svg+xml</dc:format><dc:type
           rdf:resource="http://purl.org/dc/dcmitype/StillImage" /><dc:title /></cc:Work></rdf:RDF></metadata><sodipodi:namedview
     pagecolor="#ffffff"
     bordercolor="#666666"
     borderopacity="1"
     objecttolerance="10"
     gridtolerance="10"
     guidetolerance="10"
     inkscape:pageopacity="0"
     inkscape:pageshadow="2"
     inkscape:window-width="1866"
     inkscape:window-height="1027"
     id="namedview13"
     showgrid="false"
     inkscape:zoom="1"
     inkscape:cx="402.72464"
     inkscape:cy="383.70376"
     inkscape:window-x="0"
     inkscape:window-y="25"
     inkscape:window-maximized="1"
     inkscape:current-layer="Layer_1"
     inkscape:document-rotation="0" /><defs
     id="defs7" /><path
     id="rect2986"
     style="fill:#000000;fill-opacity:1;stroke:none;stroke-width:0.895999"
     d="M 44.800781 32 C 19.981581 32 -9.4739031e-15 51.981581 0 76.800781 L 0 435.19922 C 0 460.01842 19.981581 480 44.800781 480 L 403.19922 480 C 428.01842 480 448 460.01842 448 435.19922 L 448 76.800781 C 448 51.981581 428.01842 32 403.19922 32 L 44.800781 32 z M 237.89258 83 L 287.52344 83 C 292.20346 127.50666 328.08972 162.27037 372.72266 165.5332 L 372.72266 223.18945 L 372.67383 223.18945 C 369.84241 223.46464 366.99904 223.60826 364.1543 223.62109 C 332.95144 223.62509 303.85023 207.8979 286.75781 181.79297 L 286.75781 324.22852 C 286.75781 418.02477 173.36279 464.98192 107.04688 398.66602 C 40.730959 332.35007 87.686196 218.95508 181.48242 218.95508 C 183.68001 218.95508 185.82772 219.1513 187.98828 219.28711 L 187.98828 271.16602 C 185.82772 270.90675 183.7047 270.51172 181.48242 270.51172 C 109.84251 270.51172 109.84251 377.9707 181.48242 377.9707 C 211.1623 377.9707 237.37305 354.58809 237.37305 324.9082 L 237.89258 83 z " /></svg>
