<?xml version="1.0" encoding="UTF-8" standalone="no"?>
<svg
   xmlns:dc="http://purl.org/dc/elements/1.1/"
   xmlns:cc="http://creativecommons.org/ns#"
   xmlns:rdf="http://www.w3.org/1999/02/22-rdf-syntax-ns#"
   xmlns:svg="http://www.w3.org/2000/svg"
   xmlns="http://www.w3.org/2000/svg"
   xmlns:sodipodi="http://sodipodi.sourceforge.net/DTD/sodipodi-0.dtd"
   xmlns:inkscape="http://www.inkscape.org/namespaces/inkscape"
   width="448mm"
   height="512mm"
   viewBox="0 0 448 512"
   version="1.1"
   id="svg877"
   inkscape:version="1.0.1 (c497b03c, 2020-09-10)"
   sodipodi:docname="feiyr.svg">
  <defs
     id="defs871" />
  <sodipodi:namedview
     id="base"
     pagecolor="#ffffff"
     bordercolor="#666666"
     borderopacity="1.0"
     inkscape:pageopacity="0.0"
     inkscape:pageshadow="2"
     inkscape:zoom="0.3732132"
     inkscape:cx="400"
     inkscape:cy="1029.5962"
     inkscape:document-units="mm"
     inkscape:current-layer="layer1"
     inkscape:document-rotation="0"
     showgrid="false"
     inkscape:window-width="1629"
     inkscape:window-height="1027"
     inkscape:window-x="0"
     inkscape:window-y="25"
     inkscape:window-maximized="0" />
  <metadata
     id="metadata874">
    <rdf:RDF>
      <cc:Work
         rdf:about="">
        <dc:format>image/svg+xml</dc:format>
        <dc:type
           rdf:resource="http://purl.org/dc/dcmitype/StillImage" />
        <dc:title></dc:title>
      </cc:Work>
    </rdf:RDF>
  </metadata>
  <g
     inkscape:label="Layer 1"
     inkscape:groupmode="layer"
     id="layer1">
    <path
       style="fill:#000000;fill-opacity:1;stroke-width:55.086"
       d="M 210.90199,479.70306 C 155.63062,475.81616 106.79333,454.31146 68.158738,416.84838 28.550428,378.44118 5.0346481,328.55744 0.42904815,273.17414 c -0.85229,-10.2487 -0.36869,-34.88728 0.86777995,-44.21312 5.70243,-43.00953 20.8352299,-78.99665 47.5626499,-113.10813 5.88681,-7.51318 20.67611,-22.82973 28.88267,-29.912352 33.441402,-28.861474 72.206882,-46.177072 117.778222,-52.608697 7.9903,-1.127688 11.82113,-1.310377 27.9137,-1.331025 20.38805,-0.02549 26.7424,0.531186 43.71647,3.834321 54.37081,10.580483 102.63009,41.027813 136.56762,86.162003 l 4.99021,6.63657 -11.10831,22.227 c -6.10954,12.22485 -13.33396,26.50679 -16.05423,31.73762 l -4.94598,9.51061 -4.73151,-9.54587 c -16.07875,-32.4393 -42.116,-58.72817 -74.01837,-74.73375 -7.46435,-3.74488 -14.62101,-6.78265 -21.66465,-9.195958 -5.69195,-1.950158 -19.77795,-5.522058 -23.97091,-6.078482 l -2.8419,-0.377104 v 21.269924 21.26996 l 6.84892,1.94059 c 48.87255,13.84761 82.97006,53.42414 89.59669,103.99372 4.05434,30.93948 -4.59455,63.16264 -23.86434,88.91134 -19.51195,26.07239 -48.11425,42.97667 -81.61602,48.23594 -8.58162,1.34717 -26.19422,1.35272 -34.68176,0.0113 -39.77284,-6.28819 -72.63235,-29.22719 -90.91323,-63.46627 l -3.03542,-5.68527 H 89.415278 c -12.26061,0 -22.45114,0.15918 -22.64562,0.35377 -0.9064,0.9067 6.80393,18.89658 12.13829,28.32134 25.781052,45.54995 69.630912,75.18458 122.084982,82.50756 9.04565,1.26285 33.55706,1.42812 41.96781,0.28295 40.93228,-5.57304 75.19978,-23.21014 102.38203,-52.69491 25.35294,-27.50054 40.93669,-63.82856 43.0957,-100.46254 l 0.37801,-6.41412 21.57467,-42.85806 c 11.86606,-23.57192 21.76861,-43.07263 22.00565,-43.33494 0.57499,-0.63626 6.42448,17.0776 9.0038,27.26602 6.7145,26.52252 8.37822,56.53403 4.65611,83.99061 -10.90417,80.43657 -64.09396,148.50373 -139.57985,178.62088 -26.30023,10.49322 -56.1133,16.06912 -84.20857,15.74937 -4.80883,-0.0547 -9.92367,-0.1824 -11.3663,-0.28394 z"
       id="path855" />
  </g>
</svg>
